<svg id="eY0LXSlxPB21" xmlns="http://www.w3.org/2000/svg" xmlns:xlink="http://www.w3.org/1999/xlink" viewBox="0 0 1920 1080" shape-rendering="geometricPrecision" text-rendering="geometricPrecision" project-id="2ae15a62b6934bffa9b1caf00ab6b121" export-id="c970866c778b40969fd7e990c8249b46" cached="false"><rect width="1952.157897" height="1082.843064" rx="0" ry="0" transform="matrix(.983527 0 0 1.006671 0-.000135)" fill="#5d9" stroke-width="0"/><rect width="1920" height="1080" rx="0" ry="0" transform="matrix(.116204 0 0 1.007633 185.052121-4.121955)" fill="#209d5e" stroke-width="0"/><rect width="1920" height="1080" rx="0" ry="0" transform="matrix(.116204 0 0 1 1074.615478-.000133)" fill="#209d5e" stroke-width="0"/><rect width="1920" height="1080" rx="0" ry="0" transform="matrix(.116204 0 0 1.006671 1517.955473-3.602471)" fill="#209d5e" stroke-width="0"/><rect width="1920" height="1080" rx="0" ry="0" transform="matrix(.116204 0 0 1.006671 628.392117-3.602473)" fill="#209d5e" stroke-width="0"/><rect width="1705.573488" height="917.181505" rx="0" ry="0" transform="matrix(.916193 0 0 0.952061 178.432255 106.995699)" fill="none" stroke="#fff" stroke-width="15"/><line x1="0" y1="-427.181851" x2="0" y2="427.181851" transform="matrix(1 0 0 1.022062 960.749499 535.419235)" fill="none" stroke="#fff" stroke-width="15"/><line x1="0" y1="-427.181851" x2="0" y2="427.181851" transform="matrix(-1 0 0 0.549411 408.163801 552.919299)" fill="none" stroke="#fff" stroke-width="15"/><path d="M134.8913,779.27891v-478.55782h224.6472v117.34914c60.01815,0,108.67248,52.539,108.67248,117.34914s-48.65433,117.34914-108.67248,117.34914v126.5104h-224.6472Z" transform="translate(48.625297 17.499928)" fill="none" stroke="#fff" stroke-width="15"/><rect width="224.647201" height="298.388842" rx="0" ry="0" transform="matrix(.483747 0 0 0.816259 183.516599 435.718642)" fill="none" stroke="#fff" stroke-width="15"/><rect width="224.647201" height="298.388842" rx="0" ry="0" transform="matrix(-.483728-.004315 0.007281-.816227 1734.117523 675.180415)" fill="none" stroke="#fff" stroke-width="15"/><ellipse rx="17.5" ry="17.5" transform="matrix(-.99996-.00892 0.00892-.99996 1569.640361 543.758171)" fill="#fff" stroke-width="0"/><line x1="0" y1="-427.181851" x2="0" y2="427.181851" transform="matrix(.99996 0.00892 0.004901-.549389 1515.861997 546.500822)" fill="none" stroke="#fff" stroke-width="15"/><path d="M134.8913,779.27891v-478.55782h224.6472v117.34914c60.01815,0,108.67248,52.539,108.67248,117.34914s-48.65433,117.34914-108.67248,117.34914v126.5104h-224.6472Z" transform="matrix(-.999939-.011028 0.011028-.999939 1867.856719 1091.631555)" fill="none" stroke="#fff" stroke-width="15"/><ellipse rx="17.5" ry="17.5" transform="translate(349.257373 552.919299)" fill="#fff" stroke-width="0"/><ellipse rx="17.5" ry="17.5" transform="translate(960.7495 539.999864)" fill="#fff" stroke-width="0"/><ellipse rx="117.575" ry="150" transform="matrix(1 0 0 0.783845 959.7495 535.795375)" fill="none" stroke="#fff" stroke-width="15"/></svg>
